<?xml version="1.0" encoding="utf-8" standalone="no"?>
<!DOCTYPE svg PUBLIC "-//W3C//DTD SVG 1.1//EN"
  "http://www.w3.org/Graphics/SVG/1.1/DTD/svg11.dtd">
<svg height="288pt" version="1.1" viewBox="0 0 432 288" width="432pt" xmlns="http://www.w3.org/2000/svg" xmlns:xlink="http://www.w3.org/1999/xlink">
 <metadata>
  <rdf:RDF xmlns:cc="http://creativecommons.org/ns#" xmlns:dc="http://purl.org/dc/elements/1.1/" xmlns:rdf="http://www.w3.org/1999/02/22-rdf-syntax-ns#">
   <cc:Work>
    <dc:type rdf:resource="http://purl.org/dc/dcmitype/StillImage"/>
    <dc:date>2022-05-17T16:02:39.265401</dc:date>
    <dc:format>image/svg+xml</dc:format>
    <dc:creator>
     <cc:Agent>
      <dc:title>Matplotlib v3.4.3, https://matplotlib.org/</dc:title>
     </cc:Agent>
    </dc:creator>
   </cc:Work>
  </rdf:RDF>
 </metadata>
 <defs>
  <style type="text/css">*{stroke-linecap:butt;stroke-linejoin:round;}</style>
 </defs>
 <g id="figure_1">
  <g id="patch_1">
   <path d="M 0 288 
L 432 288 
L 432 0 
L 0 0 
z
" style="fill:none;"/>
  </g>
  <g id="axes_1">
   <g id="patch_2">
    <path d="M 54 252 
L 321.84 252 
L 321.84 34.56 
L 54 34.56 
z
" style="fill:#ffffff;"/>
   </g>
   <g id="matplotlib.axis_1">
    <g id="xtick_1">
     <g id="line2d_1">
      <defs>
       <path d="M 0 0 
L 0 3.5 
" id="m08d20b0785" style="stroke:#000000;stroke-width:0.8;"/>
      </defs>
      <g>
       <use style="stroke:#000000;stroke-width:0.8;" x="75.145263" xlink:href="#m08d20b0785" y="252"/>
      </g>
     </g>
     <g id="text_1">
      <!-- 25 -->
      <g transform="translate(68.782763 266.598437)scale(0.1 -0.1)">
       <defs>
        <path d="M 1228 531 
L 3431 531 
L 3431 0 
L 469 0 
L 469 531 
Q 828 903 1448 1529 
Q 2069 2156 2228 2338 
Q 2531 2678 2651 2914 
Q 2772 3150 2772 3378 
Q 2772 3750 2511 3984 
Q 2250 4219 1831 4219 
Q 1534 4219 1204 4116 
Q 875 4013 500 3803 
L 500 4441 
Q 881 4594 1212 4672 
Q 1544 4750 1819 4750 
Q 2544 4750 2975 4387 
Q 3406 4025 3406 3419 
Q 3406 3131 3298 2873 
Q 3191 2616 2906 2266 
Q 2828 2175 2409 1742 
Q 1991 1309 1228 531 
z
" id="DejaVuSans-32" transform="scale(0.015625)"/>
        <path d="M 691 4666 
L 3169 4666 
L 3169 4134 
L 1269 4134 
L 1269 2991 
Q 1406 3038 1543 3061 
Q 1681 3084 1819 3084 
Q 2600 3084 3056 2656 
Q 3513 2228 3513 1497 
Q 3513 744 3044 326 
Q 2575 -91 1722 -91 
Q 1428 -91 1123 -41 
Q 819 9 494 109 
L 494 744 
Q 775 591 1075 516 
Q 1375 441 1709 441 
Q 2250 441 2565 725 
Q 2881 1009 2881 1497 
Q 2881 1984 2565 2268 
Q 2250 2553 1709 2553 
Q 1456 2553 1204 2497 
Q 953 2441 691 2322 
L 691 4666 
z
" id="DejaVuSans-35" transform="scale(0.015625)"/>
       </defs>
       <use xlink:href="#DejaVuSans-32"/>
       <use x="63.623047" xlink:href="#DejaVuSans-35"/>
      </g>
     </g>
    </g>
    <g id="xtick_2">
     <g id="line2d_2">
      <g>
       <use style="stroke:#000000;stroke-width:0.8;" x="110.387368" xlink:href="#m08d20b0785" y="252"/>
      </g>
     </g>
     <g id="text_2">
      <!-- 50 -->
      <g transform="translate(104.024868 266.598437)scale(0.1 -0.1)">
       <defs>
        <path d="M 2034 4250 
Q 1547 4250 1301 3770 
Q 1056 3291 1056 2328 
Q 1056 1369 1301 889 
Q 1547 409 2034 409 
Q 2525 409 2770 889 
Q 3016 1369 3016 2328 
Q 3016 3291 2770 3770 
Q 2525 4250 2034 4250 
z
M 2034 4750 
Q 2819 4750 3233 4129 
Q 3647 3509 3647 2328 
Q 3647 1150 3233 529 
Q 2819 -91 2034 -91 
Q 1250 -91 836 529 
Q 422 1150 422 2328 
Q 422 3509 836 4129 
Q 1250 4750 2034 4750 
z
" id="DejaVuSans-30" transform="scale(0.015625)"/>
       </defs>
       <use xlink:href="#DejaVuSans-35"/>
       <use x="63.623047" xlink:href="#DejaVuSans-30"/>
      </g>
     </g>
    </g>
    <g id="xtick_3">
     <g id="line2d_3">
      <g>
       <use style="stroke:#000000;stroke-width:0.8;" x="145.629474" xlink:href="#m08d20b0785" y="252"/>
      </g>
     </g>
     <g id="text_3">
      <!-- 75 -->
      <g transform="translate(139.266974 266.598437)scale(0.1 -0.1)">
       <defs>
        <path d="M 525 4666 
L 3525 4666 
L 3525 4397 
L 1831 0 
L 1172 0 
L 2766 4134 
L 525 4134 
L 525 4666 
z
" id="DejaVuSans-37" transform="scale(0.015625)"/>
       </defs>
       <use xlink:href="#DejaVuSans-37"/>
       <use x="63.623047" xlink:href="#DejaVuSans-35"/>
      </g>
     </g>
    </g>
    <g id="xtick_4">
     <g id="line2d_4">
      <g>
       <use style="stroke:#000000;stroke-width:0.8;" x="180.871579" xlink:href="#m08d20b0785" y="252"/>
      </g>
     </g>
     <g id="text_4">
      <!-- 100 -->
      <g transform="translate(171.327829 266.598437)scale(0.1 -0.1)">
       <defs>
        <path d="M 794 531 
L 1825 531 
L 1825 4091 
L 703 3866 
L 703 4441 
L 1819 4666 
L 2450 4666 
L 2450 531 
L 3481 531 
L 3481 0 
L 794 0 
L 794 531 
z
" id="DejaVuSans-31" transform="scale(0.015625)"/>
       </defs>
       <use xlink:href="#DejaVuSans-31"/>
       <use x="63.623047" xlink:href="#DejaVuSans-30"/>
       <use x="127.246094" xlink:href="#DejaVuSans-30"/>
      </g>
     </g>
    </g>
    <g id="xtick_5">
     <g id="line2d_5">
      <g>
       <use style="stroke:#000000;stroke-width:0.8;" x="216.113684" xlink:href="#m08d20b0785" y="252"/>
      </g>
     </g>
     <g id="text_5">
      <!-- 125 -->
      <g transform="translate(206.569934 266.598437)scale(0.1 -0.1)">
       <use xlink:href="#DejaVuSans-31"/>
       <use x="63.623047" xlink:href="#DejaVuSans-32"/>
       <use x="127.246094" xlink:href="#DejaVuSans-35"/>
      </g>
     </g>
    </g>
    <g id="xtick_6">
     <g id="line2d_6">
      <g>
       <use style="stroke:#000000;stroke-width:0.8;" x="251.355789" xlink:href="#m08d20b0785" y="252"/>
      </g>
     </g>
     <g id="text_6">
      <!-- 150 -->
      <g transform="translate(241.812039 266.598437)scale(0.1 -0.1)">
       <use xlink:href="#DejaVuSans-31"/>
       <use x="63.623047" xlink:href="#DejaVuSans-35"/>
       <use x="127.246094" xlink:href="#DejaVuSans-30"/>
      </g>
     </g>
    </g>
    <g id="xtick_7">
     <g id="line2d_7">
      <g>
       <use style="stroke:#000000;stroke-width:0.8;" x="286.597895" xlink:href="#m08d20b0785" y="252"/>
      </g>
     </g>
     <g id="text_7">
      <!-- 175 -->
      <g transform="translate(277.054145 266.598437)scale(0.1 -0.1)">
       <use xlink:href="#DejaVuSans-31"/>
       <use x="63.623047" xlink:href="#DejaVuSans-37"/>
       <use x="127.246094" xlink:href="#DejaVuSans-35"/>
      </g>
     </g>
    </g>
    <g id="xtick_8">
     <g id="line2d_8">
      <g>
       <use style="stroke:#000000;stroke-width:0.8;" x="321.84" xlink:href="#m08d20b0785" y="252"/>
      </g>
     </g>
     <g id="text_8">
      <!-- 200 -->
      <g transform="translate(312.29625 266.598437)scale(0.1 -0.1)">
       <use xlink:href="#DejaVuSans-32"/>
       <use x="63.623047" xlink:href="#DejaVuSans-30"/>
       <use x="127.246094" xlink:href="#DejaVuSans-30"/>
      </g>
     </g>
    </g>
    <g id="text_9">
     <!-- Sensor Position Downwind (m) -->
     <g transform="translate(111.789531 280.276563)scale(0.1 -0.1)">
      <defs>
       <path d="M 3425 4513 
L 3425 3897 
Q 3066 4069 2747 4153 
Q 2428 4238 2131 4238 
Q 1616 4238 1336 4038 
Q 1056 3838 1056 3469 
Q 1056 3159 1242 3001 
Q 1428 2844 1947 2747 
L 2328 2669 
Q 3034 2534 3370 2195 
Q 3706 1856 3706 1288 
Q 3706 609 3251 259 
Q 2797 -91 1919 -91 
Q 1588 -91 1214 -16 
Q 841 59 441 206 
L 441 856 
Q 825 641 1194 531 
Q 1563 422 1919 422 
Q 2459 422 2753 634 
Q 3047 847 3047 1241 
Q 3047 1584 2836 1778 
Q 2625 1972 2144 2069 
L 1759 2144 
Q 1053 2284 737 2584 
Q 422 2884 422 3419 
Q 422 4038 858 4394 
Q 1294 4750 2059 4750 
Q 2388 4750 2728 4690 
Q 3069 4631 3425 4513 
z
" id="DejaVuSans-53" transform="scale(0.015625)"/>
       <path d="M 3597 1894 
L 3597 1613 
L 953 1613 
Q 991 1019 1311 708 
Q 1631 397 2203 397 
Q 2534 397 2845 478 
Q 3156 559 3463 722 
L 3463 178 
Q 3153 47 2828 -22 
Q 2503 -91 2169 -91 
Q 1331 -91 842 396 
Q 353 884 353 1716 
Q 353 2575 817 3079 
Q 1281 3584 2069 3584 
Q 2775 3584 3186 3129 
Q 3597 2675 3597 1894 
z
M 3022 2063 
Q 3016 2534 2758 2815 
Q 2500 3097 2075 3097 
Q 1594 3097 1305 2825 
Q 1016 2553 972 2059 
L 3022 2063 
z
" id="DejaVuSans-65" transform="scale(0.015625)"/>
       <path d="M 3513 2113 
L 3513 0 
L 2938 0 
L 2938 2094 
Q 2938 2591 2744 2837 
Q 2550 3084 2163 3084 
Q 1697 3084 1428 2787 
Q 1159 2491 1159 1978 
L 1159 0 
L 581 0 
L 581 3500 
L 1159 3500 
L 1159 2956 
Q 1366 3272 1645 3428 
Q 1925 3584 2291 3584 
Q 2894 3584 3203 3211 
Q 3513 2838 3513 2113 
z
" id="DejaVuSans-6e" transform="scale(0.015625)"/>
       <path d="M 2834 3397 
L 2834 2853 
Q 2591 2978 2328 3040 
Q 2066 3103 1784 3103 
Q 1356 3103 1142 2972 
Q 928 2841 928 2578 
Q 928 2378 1081 2264 
Q 1234 2150 1697 2047 
L 1894 2003 
Q 2506 1872 2764 1633 
Q 3022 1394 3022 966 
Q 3022 478 2636 193 
Q 2250 -91 1575 -91 
Q 1294 -91 989 -36 
Q 684 19 347 128 
L 347 722 
Q 666 556 975 473 
Q 1284 391 1588 391 
Q 1994 391 2212 530 
Q 2431 669 2431 922 
Q 2431 1156 2273 1281 
Q 2116 1406 1581 1522 
L 1381 1569 
Q 847 1681 609 1914 
Q 372 2147 372 2553 
Q 372 3047 722 3315 
Q 1072 3584 1716 3584 
Q 2034 3584 2315 3537 
Q 2597 3491 2834 3397 
z
" id="DejaVuSans-73" transform="scale(0.015625)"/>
       <path d="M 1959 3097 
Q 1497 3097 1228 2736 
Q 959 2375 959 1747 
Q 959 1119 1226 758 
Q 1494 397 1959 397 
Q 2419 397 2687 759 
Q 2956 1122 2956 1747 
Q 2956 2369 2687 2733 
Q 2419 3097 1959 3097 
z
M 1959 3584 
Q 2709 3584 3137 3096 
Q 3566 2609 3566 1747 
Q 3566 888 3137 398 
Q 2709 -91 1959 -91 
Q 1206 -91 779 398 
Q 353 888 353 1747 
Q 353 2609 779 3096 
Q 1206 3584 1959 3584 
z
" id="DejaVuSans-6f" transform="scale(0.015625)"/>
       <path d="M 2631 2963 
Q 2534 3019 2420 3045 
Q 2306 3072 2169 3072 
Q 1681 3072 1420 2755 
Q 1159 2438 1159 1844 
L 1159 0 
L 581 0 
L 581 3500 
L 1159 3500 
L 1159 2956 
Q 1341 3275 1631 3429 
Q 1922 3584 2338 3584 
Q 2397 3584 2469 3576 
Q 2541 3569 2628 3553 
L 2631 2963 
z
" id="DejaVuSans-72" transform="scale(0.015625)"/>
       <path id="DejaVuSans-20" transform="scale(0.015625)"/>
       <path d="M 1259 4147 
L 1259 2394 
L 2053 2394 
Q 2494 2394 2734 2622 
Q 2975 2850 2975 3272 
Q 2975 3691 2734 3919 
Q 2494 4147 2053 4147 
L 1259 4147 
z
M 628 4666 
L 2053 4666 
Q 2838 4666 3239 4311 
Q 3641 3956 3641 3272 
Q 3641 2581 3239 2228 
Q 2838 1875 2053 1875 
L 1259 1875 
L 1259 0 
L 628 0 
L 628 4666 
z
" id="DejaVuSans-50" transform="scale(0.015625)"/>
       <path d="M 603 3500 
L 1178 3500 
L 1178 0 
L 603 0 
L 603 3500 
z
M 603 4863 
L 1178 4863 
L 1178 4134 
L 603 4134 
L 603 4863 
z
" id="DejaVuSans-69" transform="scale(0.015625)"/>
       <path d="M 1172 4494 
L 1172 3500 
L 2356 3500 
L 2356 3053 
L 1172 3053 
L 1172 1153 
Q 1172 725 1289 603 
Q 1406 481 1766 481 
L 2356 481 
L 2356 0 
L 1766 0 
Q 1100 0 847 248 
Q 594 497 594 1153 
L 594 3053 
L 172 3053 
L 172 3500 
L 594 3500 
L 594 4494 
L 1172 4494 
z
" id="DejaVuSans-74" transform="scale(0.015625)"/>
       <path d="M 1259 4147 
L 1259 519 
L 2022 519 
Q 2988 519 3436 956 
Q 3884 1394 3884 2338 
Q 3884 3275 3436 3711 
Q 2988 4147 2022 4147 
L 1259 4147 
z
M 628 4666 
L 1925 4666 
Q 3281 4666 3915 4102 
Q 4550 3538 4550 2338 
Q 4550 1131 3912 565 
Q 3275 0 1925 0 
L 628 0 
L 628 4666 
z
" id="DejaVuSans-44" transform="scale(0.015625)"/>
       <path d="M 269 3500 
L 844 3500 
L 1563 769 
L 2278 3500 
L 2956 3500 
L 3675 769 
L 4391 3500 
L 4966 3500 
L 4050 0 
L 3372 0 
L 2619 2869 
L 1863 0 
L 1184 0 
L 269 3500 
z
" id="DejaVuSans-77" transform="scale(0.015625)"/>
       <path d="M 2906 2969 
L 2906 4863 
L 3481 4863 
L 3481 0 
L 2906 0 
L 2906 525 
Q 2725 213 2448 61 
Q 2172 -91 1784 -91 
Q 1150 -91 751 415 
Q 353 922 353 1747 
Q 353 2572 751 3078 
Q 1150 3584 1784 3584 
Q 2172 3584 2448 3432 
Q 2725 3281 2906 2969 
z
M 947 1747 
Q 947 1113 1208 752 
Q 1469 391 1925 391 
Q 2381 391 2643 752 
Q 2906 1113 2906 1747 
Q 2906 2381 2643 2742 
Q 2381 3103 1925 3103 
Q 1469 3103 1208 2742 
Q 947 2381 947 1747 
z
" id="DejaVuSans-64" transform="scale(0.015625)"/>
       <path d="M 1984 4856 
Q 1566 4138 1362 3434 
Q 1159 2731 1159 2009 
Q 1159 1288 1364 580 
Q 1569 -128 1984 -844 
L 1484 -844 
Q 1016 -109 783 600 
Q 550 1309 550 2009 
Q 550 2706 781 3412 
Q 1013 4119 1484 4856 
L 1984 4856 
z
" id="DejaVuSans-28" transform="scale(0.015625)"/>
       <path d="M 3328 2828 
Q 3544 3216 3844 3400 
Q 4144 3584 4550 3584 
Q 5097 3584 5394 3201 
Q 5691 2819 5691 2113 
L 5691 0 
L 5113 0 
L 5113 2094 
Q 5113 2597 4934 2840 
Q 4756 3084 4391 3084 
Q 3944 3084 3684 2787 
Q 3425 2491 3425 1978 
L 3425 0 
L 2847 0 
L 2847 2094 
Q 2847 2600 2669 2842 
Q 2491 3084 2119 3084 
Q 1678 3084 1418 2786 
Q 1159 2488 1159 1978 
L 1159 0 
L 581 0 
L 581 3500 
L 1159 3500 
L 1159 2956 
Q 1356 3278 1631 3431 
Q 1906 3584 2284 3584 
Q 2666 3584 2933 3390 
Q 3200 3197 3328 2828 
z
" id="DejaVuSans-6d" transform="scale(0.015625)"/>
       <path d="M 513 4856 
L 1013 4856 
Q 1481 4119 1714 3412 
Q 1947 2706 1947 2009 
Q 1947 1309 1714 600 
Q 1481 -109 1013 -844 
L 513 -844 
Q 928 -128 1133 580 
Q 1338 1288 1338 2009 
Q 1338 2731 1133 3434 
Q 928 4138 513 4856 
z
" id="DejaVuSans-29" transform="scale(0.015625)"/>
      </defs>
      <use xlink:href="#DejaVuSans-53"/>
      <use x="63.476562" xlink:href="#DejaVuSans-65"/>
      <use x="125" xlink:href="#DejaVuSans-6e"/>
      <use x="188.378906" xlink:href="#DejaVuSans-73"/>
      <use x="240.478516" xlink:href="#DejaVuSans-6f"/>
      <use x="301.660156" xlink:href="#DejaVuSans-72"/>
      <use x="342.773438" xlink:href="#DejaVuSans-20"/>
      <use x="374.560547" xlink:href="#DejaVuSans-50"/>
      <use x="431.238281" xlink:href="#DejaVuSans-6f"/>
      <use x="492.419922" xlink:href="#DejaVuSans-73"/>
      <use x="544.519531" xlink:href="#DejaVuSans-69"/>
      <use x="572.302734" xlink:href="#DejaVuSans-74"/>
      <use x="611.511719" xlink:href="#DejaVuSans-69"/>
      <use x="639.294922" xlink:href="#DejaVuSans-6f"/>
      <use x="700.476562" xlink:href="#DejaVuSans-6e"/>
      <use x="763.855469" xlink:href="#DejaVuSans-20"/>
      <use x="795.642578" xlink:href="#DejaVuSans-44"/>
      <use x="872.644531" xlink:href="#DejaVuSans-6f"/>
      <use x="933.826172" xlink:href="#DejaVuSans-77"/>
      <use x="1015.613281" xlink:href="#DejaVuSans-6e"/>
      <use x="1078.992188" xlink:href="#DejaVuSans-77"/>
      <use x="1160.779297" xlink:href="#DejaVuSans-69"/>
      <use x="1188.5625" xlink:href="#DejaVuSans-6e"/>
      <use x="1251.941406" xlink:href="#DejaVuSans-64"/>
      <use x="1315.417969" xlink:href="#DejaVuSans-20"/>
      <use x="1347.205078" xlink:href="#DejaVuSans-28"/>
      <use x="1386.21875" xlink:href="#DejaVuSans-6d"/>
      <use x="1483.630859" xlink:href="#DejaVuSans-29"/>
     </g>
    </g>
   </g>
   <g id="matplotlib.axis_2">
    <g id="ytick_1">
     <g id="line2d_9">
      <defs>
       <path d="M 0 0 
L -3.5 0 
" id="m84c0f41196" style="stroke:#000000;stroke-width:0.8;"/>
      </defs>
      <g>
       <use style="stroke:#000000;stroke-width:0.8;" x="54" xlink:href="#m84c0f41196" y="252"/>
      </g>
     </g>
     <g id="text_10">
      <!-- $\mathdefault{10^{-1}}$ -->
      <g transform="translate(23.5 255.799219)scale(0.1 -0.1)">
       <defs>
        <path d="M 678 2272 
L 4684 2272 
L 4684 1741 
L 678 1741 
L 678 2272 
z
" id="DejaVuSans-2212" transform="scale(0.015625)"/>
       </defs>
       <use transform="translate(0 0.684375)" xlink:href="#DejaVuSans-31"/>
       <use transform="translate(63.623047 0.684375)" xlink:href="#DejaVuSans-30"/>
       <use transform="translate(128.203125 38.965625)scale(0.7)" xlink:href="#DejaVuSans-2212"/>
       <use transform="translate(186.855469 38.965625)scale(0.7)" xlink:href="#DejaVuSans-31"/>
      </g>
     </g>
    </g>
    <g id="ytick_2">
     <g id="line2d_10">
      <g>
       <use style="stroke:#000000;stroke-width:0.8;" x="54" xlink:href="#m84c0f41196" y="181.383826"/>
      </g>
     </g>
     <g id="text_11">
      <!-- $\mathdefault{10^{0}}$ -->
      <g transform="translate(29.4 185.183044)scale(0.1 -0.1)">
       <use transform="translate(0 0.765625)" xlink:href="#DejaVuSans-31"/>
       <use transform="translate(63.623047 0.765625)" xlink:href="#DejaVuSans-30"/>
       <use transform="translate(128.203125 39.046875)scale(0.7)" xlink:href="#DejaVuSans-30"/>
      </g>
     </g>
    </g>
    <g id="ytick_3">
     <g id="line2d_11">
      <g>
       <use style="stroke:#000000;stroke-width:0.8;" x="54" xlink:href="#m84c0f41196" y="110.767651"/>
      </g>
     </g>
     <g id="text_12">
      <!-- $\mathdefault{10^{1}}$ -->
      <g transform="translate(29.4 114.56687)scale(0.1 -0.1)">
       <use transform="translate(0 0.684375)" xlink:href="#DejaVuSans-31"/>
       <use transform="translate(63.623047 0.684375)" xlink:href="#DejaVuSans-30"/>
       <use transform="translate(128.203125 38.965625)scale(0.7)" xlink:href="#DejaVuSans-31"/>
      </g>
     </g>
    </g>
    <g id="ytick_4">
     <g id="line2d_12">
      <g>
       <use style="stroke:#000000;stroke-width:0.8;" x="54" xlink:href="#m84c0f41196" y="40.151477"/>
      </g>
     </g>
     <g id="text_13">
      <!-- $\mathdefault{10^{2}}$ -->
      <g transform="translate(29.4 43.950695)scale(0.1 -0.1)">
       <use transform="translate(0 0.765625)" xlink:href="#DejaVuSans-31"/>
       <use transform="translate(63.623047 0.765625)" xlink:href="#DejaVuSans-30"/>
       <use transform="translate(128.203125 39.046875)scale(0.7)" xlink:href="#DejaVuSans-32"/>
      </g>
     </g>
    </g>
    <g id="ytick_5">
     <g id="line2d_13">
      <defs>
       <path d="M 0 0 
L -2 0 
" id="m561e17fbba" style="stroke:#000000;stroke-width:0.6;"/>
      </defs>
      <g>
       <use style="stroke:#000000;stroke-width:0.6;" x="54" xlink:href="#m561e17fbba" y="230.742413"/>
      </g>
     </g>
    </g>
    <g id="ytick_6">
     <g id="line2d_14">
      <g>
       <use style="stroke:#000000;stroke-width:0.6;" x="54" xlink:href="#m561e17fbba" y="218.307522"/>
      </g>
     </g>
    </g>
    <g id="ytick_7">
     <g id="line2d_15">
      <g>
       <use style="stroke:#000000;stroke-width:0.6;" x="54" xlink:href="#m561e17fbba" y="209.484827"/>
      </g>
     </g>
    </g>
    <g id="ytick_8">
     <g id="line2d_16">
      <g>
       <use style="stroke:#000000;stroke-width:0.6;" x="54" xlink:href="#m561e17fbba" y="202.641412"/>
      </g>
     </g>
    </g>
    <g id="ytick_9">
     <g id="line2d_17">
      <g>
       <use style="stroke:#000000;stroke-width:0.6;" x="54" xlink:href="#m561e17fbba" y="197.049936"/>
      </g>
     </g>
    </g>
    <g id="ytick_10">
     <g id="line2d_18">
      <g>
       <use style="stroke:#000000;stroke-width:0.6;" x="54" xlink:href="#m561e17fbba" y="192.322409"/>
      </g>
     </g>
    </g>
    <g id="ytick_11">
     <g id="line2d_19">
      <g>
       <use style="stroke:#000000;stroke-width:0.6;" x="54" xlink:href="#m561e17fbba" y="188.22724"/>
      </g>
     </g>
    </g>
    <g id="ytick_12">
     <g id="line2d_20">
      <g>
       <use style="stroke:#000000;stroke-width:0.6;" x="54" xlink:href="#m561e17fbba" y="184.615044"/>
      </g>
     </g>
    </g>
    <g id="ytick_13">
     <g id="line2d_21">
      <g>
       <use style="stroke:#000000;stroke-width:0.6;" x="54" xlink:href="#m561e17fbba" y="160.126239"/>
      </g>
     </g>
    </g>
    <g id="ytick_14">
     <g id="line2d_22">
      <g>
       <use style="stroke:#000000;stroke-width:0.6;" x="54" xlink:href="#m561e17fbba" y="147.691348"/>
      </g>
     </g>
    </g>
    <g id="ytick_15">
     <g id="line2d_23">
      <g>
       <use style="stroke:#000000;stroke-width:0.6;" x="54" xlink:href="#m561e17fbba" y="138.868652"/>
      </g>
     </g>
    </g>
    <g id="ytick_16">
     <g id="line2d_24">
      <g>
       <use style="stroke:#000000;stroke-width:0.6;" x="54" xlink:href="#m561e17fbba" y="132.025238"/>
      </g>
     </g>
    </g>
    <g id="ytick_17">
     <g id="line2d_25">
      <g>
       <use style="stroke:#000000;stroke-width:0.6;" x="54" xlink:href="#m561e17fbba" y="126.433761"/>
      </g>
     </g>
    </g>
    <g id="ytick_18">
     <g id="line2d_26">
      <g>
       <use style="stroke:#000000;stroke-width:0.6;" x="54" xlink:href="#m561e17fbba" y="121.706235"/>
      </g>
     </g>
    </g>
    <g id="ytick_19">
     <g id="line2d_27">
      <g>
       <use style="stroke:#000000;stroke-width:0.6;" x="54" xlink:href="#m561e17fbba" y="117.611066"/>
      </g>
     </g>
    </g>
    <g id="ytick_20">
     <g id="line2d_28">
      <g>
       <use style="stroke:#000000;stroke-width:0.6;" x="54" xlink:href="#m561e17fbba" y="113.99887"/>
      </g>
     </g>
    </g>
    <g id="ytick_21">
     <g id="line2d_29">
      <g>
       <use style="stroke:#000000;stroke-width:0.6;" x="54" xlink:href="#m561e17fbba" y="89.510064"/>
      </g>
     </g>
    </g>
    <g id="ytick_22">
     <g id="line2d_30">
      <g>
       <use style="stroke:#000000;stroke-width:0.6;" x="54" xlink:href="#m561e17fbba" y="77.075173"/>
      </g>
     </g>
    </g>
    <g id="ytick_23">
     <g id="line2d_31">
      <g>
       <use style="stroke:#000000;stroke-width:0.6;" x="54" xlink:href="#m561e17fbba" y="68.252478"/>
      </g>
     </g>
    </g>
    <g id="ytick_24">
     <g id="line2d_32">
      <g>
       <use style="stroke:#000000;stroke-width:0.6;" x="54" xlink:href="#m561e17fbba" y="61.409063"/>
      </g>
     </g>
    </g>
    <g id="ytick_25">
     <g id="line2d_33">
      <g>
       <use style="stroke:#000000;stroke-width:0.6;" x="54" xlink:href="#m561e17fbba" y="55.817587"/>
      </g>
     </g>
    </g>
    <g id="ytick_26">
     <g id="line2d_34">
      <g>
       <use style="stroke:#000000;stroke-width:0.6;" x="54" xlink:href="#m561e17fbba" y="51.090061"/>
      </g>
     </g>
    </g>
    <g id="ytick_27">
     <g id="line2d_35">
      <g>
       <use style="stroke:#000000;stroke-width:0.6;" x="54" xlink:href="#m561e17fbba" y="46.994891"/>
      </g>
     </g>
    </g>
    <g id="ytick_28">
     <g id="line2d_36">
      <g>
       <use style="stroke:#000000;stroke-width:0.6;" x="54" xlink:href="#m561e17fbba" y="43.382696"/>
      </g>
     </g>
    </g>
    <g id="text_14">
     <!-- Concentration (ppm) -->
     <g transform="translate(17.420312 195.360469)rotate(-90)scale(0.1 -0.1)">
      <defs>
       <path d="M 4122 4306 
L 4122 3641 
Q 3803 3938 3442 4084 
Q 3081 4231 2675 4231 
Q 1875 4231 1450 3742 
Q 1025 3253 1025 2328 
Q 1025 1406 1450 917 
Q 1875 428 2675 428 
Q 3081 428 3442 575 
Q 3803 722 4122 1019 
L 4122 359 
Q 3791 134 3420 21 
Q 3050 -91 2638 -91 
Q 1578 -91 968 557 
Q 359 1206 359 2328 
Q 359 3453 968 4101 
Q 1578 4750 2638 4750 
Q 3056 4750 3426 4639 
Q 3797 4528 4122 4306 
z
" id="DejaVuSans-43" transform="scale(0.015625)"/>
       <path d="M 3122 3366 
L 3122 2828 
Q 2878 2963 2633 3030 
Q 2388 3097 2138 3097 
Q 1578 3097 1268 2742 
Q 959 2388 959 1747 
Q 959 1106 1268 751 
Q 1578 397 2138 397 
Q 2388 397 2633 464 
Q 2878 531 3122 666 
L 3122 134 
Q 2881 22 2623 -34 
Q 2366 -91 2075 -91 
Q 1284 -91 818 406 
Q 353 903 353 1747 
Q 353 2603 823 3093 
Q 1294 3584 2113 3584 
Q 2378 3584 2631 3529 
Q 2884 3475 3122 3366 
z
" id="DejaVuSans-63" transform="scale(0.015625)"/>
       <path d="M 2194 1759 
Q 1497 1759 1228 1600 
Q 959 1441 959 1056 
Q 959 750 1161 570 
Q 1363 391 1709 391 
Q 2188 391 2477 730 
Q 2766 1069 2766 1631 
L 2766 1759 
L 2194 1759 
z
M 3341 1997 
L 3341 0 
L 2766 0 
L 2766 531 
Q 2569 213 2275 61 
Q 1981 -91 1556 -91 
Q 1019 -91 701 211 
Q 384 513 384 1019 
Q 384 1609 779 1909 
Q 1175 2209 1959 2209 
L 2766 2209 
L 2766 2266 
Q 2766 2663 2505 2880 
Q 2244 3097 1772 3097 
Q 1472 3097 1187 3025 
Q 903 2953 641 2809 
L 641 3341 
Q 956 3463 1253 3523 
Q 1550 3584 1831 3584 
Q 2591 3584 2966 3190 
Q 3341 2797 3341 1997 
z
" id="DejaVuSans-61" transform="scale(0.015625)"/>
       <path d="M 1159 525 
L 1159 -1331 
L 581 -1331 
L 581 3500 
L 1159 3500 
L 1159 2969 
Q 1341 3281 1617 3432 
Q 1894 3584 2278 3584 
Q 2916 3584 3314 3078 
Q 3713 2572 3713 1747 
Q 3713 922 3314 415 
Q 2916 -91 2278 -91 
Q 1894 -91 1617 61 
Q 1341 213 1159 525 
z
M 3116 1747 
Q 3116 2381 2855 2742 
Q 2594 3103 2138 3103 
Q 1681 3103 1420 2742 
Q 1159 2381 1159 1747 
Q 1159 1113 1420 752 
Q 1681 391 2138 391 
Q 2594 391 2855 752 
Q 3116 1113 3116 1747 
z
" id="DejaVuSans-70" transform="scale(0.015625)"/>
      </defs>
      <use xlink:href="#DejaVuSans-43"/>
      <use x="69.824219" xlink:href="#DejaVuSans-6f"/>
      <use x="131.005859" xlink:href="#DejaVuSans-6e"/>
      <use x="194.384766" xlink:href="#DejaVuSans-63"/>
      <use x="249.365234" xlink:href="#DejaVuSans-65"/>
      <use x="310.888672" xlink:href="#DejaVuSans-6e"/>
      <use x="374.267578" xlink:href="#DejaVuSans-74"/>
      <use x="413.476562" xlink:href="#DejaVuSans-72"/>
      <use x="454.589844" xlink:href="#DejaVuSans-61"/>
      <use x="515.869141" xlink:href="#DejaVuSans-74"/>
      <use x="555.078125" xlink:href="#DejaVuSans-69"/>
      <use x="582.861328" xlink:href="#DejaVuSans-6f"/>
      <use x="644.042969" xlink:href="#DejaVuSans-6e"/>
      <use x="707.421875" xlink:href="#DejaVuSans-20"/>
      <use x="739.208984" xlink:href="#DejaVuSans-28"/>
      <use x="778.222656" xlink:href="#DejaVuSans-70"/>
      <use x="841.699219" xlink:href="#DejaVuSans-70"/>
      <use x="905.175781" xlink:href="#DejaVuSans-6d"/>
      <use x="1002.587891" xlink:href="#DejaVuSans-29"/>
     </g>
    </g>
   </g>
   <g id="line2d_37">
    <path clip-path="url(#pfafc9576c1)" d="M 70.142458 289 
L 77.964632 161.598661 
L 86.422737 107.8089 
L 94.880842 84.489293 
L 103.338947 74.309971 
L 111.797053 70.437284 
L 120.255158 69.792302 
L 128.713263 70.848732 
L 137.171368 72.797994 
L 145.629474 75.193846 
L 154.087579 77.785351 
L 162.545684 80.43147 
L 171.003789 83.054486 
L 179.461895 85.613473 
L 187.92 88.088802 
L 196.378105 90.473 
L 204.836211 92.765337 
L 213.294316 94.968652 
L 221.752421 97.087505 
L 230.210526 99.127131 
L 238.668632 101.092863 
L 247.126737 102.989826 
L 255.584842 104.822801 
L 264.042947 106.596168 
L 272.501053 108.313902 
L 280.959158 109.979598 
L 289.417263 111.5965 
L 297.875368 113.167536 
L 306.333474 114.695357 
L 314.791579 116.182367 
L 323.249684 117.630753 
L 331.707789 119.042511 
L 340.165895 120.419472 
L 348.624 121.763315 
L 357.082105 123.075589 
L 365.540211 124.357729 
L 373.998316 125.611062 
L 382.456421 126.836826 
" style="fill:none;stroke:#ff0000;stroke-dasharray:1.5,2.475;stroke-dashoffset:0;stroke-width:1.5;"/>
   </g>
   <g id="line2d_38">
    <path clip-path="url(#pfafc9576c1)" d="M 77.451083 289 
L 77.964632 278.189839 
L 86.422737 202.491488 
L 94.880842 165.654697 
L 103.338947 146.347227 
L 111.797053 135.817857 
L 120.255158 129.995112 
L 128.713263 126.835763 
L 137.171368 125.262178 
L 145.629474 124.680806 
L 154.087579 124.749064 
L 162.545684 125.258846 
L 171.003789 126.077045 
L 179.461895 127.114411 
L 187.92 128.30869 
L 196.378105 129.615085 
L 204.836211 131.0006 
L 213.294316 132.440517 
L 221.752421 133.916096 
L 230.210526 135.41301 
L 238.668632 136.920254 
L 247.126737 138.42935 
L 255.584842 139.933769 
L 264.042947 141.428489 
L 272.501053 142.909671 
L 280.959158 144.374401 
L 289.417263 145.820495 
L 297.875368 147.246346 
L 306.333474 148.650802 
L 314.791579 150.033077 
L 323.249684 151.392669 
L 331.707789 152.729304 
L 340.165895 154.04289 
L 348.624 155.333476 
L 357.082105 156.601222 
L 365.540211 157.846376 
L 373.998316 159.069253 
L 382.456421 160.270219 
" style="fill:none;stroke:#0000ff;stroke-dasharray:1.5,2.475;stroke-dashoffset:0;stroke-width:1.5;"/>
   </g>
   <g id="line2d_39">
    <path clip-path="url(#pfafc9576c1)" d="M 52.550684 289 
L 52.585309 -1 
M 67.494477 -1 
L 69.506526 3.472622 
L 77.964632 17.662084 
L 86.422737 29.053521 
L 94.880842 38.568477 
L 103.338947 46.737218 
L 111.797053 53.892669 
L 120.255158 60.257577 
L 128.713263 65.988284 
L 137.171368 71.198489 
L 145.629474 75.972752 
L 154.087579 80.374555 
L 162.545684 84.451642 
L 171.003789 88.240108 
L 179.461895 91.767784 
L 187.92 95.056992 
L 196.378105 98.126624 
L 204.836211 100.993554 
L 213.294316 103.673487 
L 221.752421 106.181382 
L 230.210526 108.5316 
L 238.668632 110.737886 
L 247.126737 112.813288 
L 255.584842 114.77006 
L 264.042947 116.619582 
L 272.501053 118.372313 
L 280.959158 120.037773 
L 289.417263 121.62456 
L 297.875368 123.140387 
L 306.333474 124.592137 
L 314.791579 125.985925 
L 323.249684 127.327167 
L 331.707789 128.620651 
L 340.165895 129.8706 
L 348.624 131.080744 
L 357.082105 132.25437 
L 365.540211 133.394382 
L 373.998316 134.503343 
L 382.456421 135.583525 
" style="fill:none;stroke:#ff0000;stroke-dasharray:5.55,2.4;stroke-dashoffset:0;stroke-width:1.5;"/>
   </g>
   <g id="line2d_40">
    <path clip-path="url(#pfafc9576c1)" d="M 52.550703 289 
L 52.585329 -1 
M 61.298075 -1 
L 69.506526 22.492773 
L 77.964632 39.711569 
L 86.422737 53.077043 
L 94.880842 63.995888 
L 103.338947 73.221954 
L 111.797053 81.206692 
L 120.255158 88.241937 
L 128.713263 94.526767 
L 137.171368 100.201366 
L 145.629474 105.365268 
L 154.087579 110.088821 
L 162.545684 114.422126 
L 171.003789 118.40254 
L 179.461895 122.060463 
L 187.92 125.423149 
L 196.378105 128.516718 
L 204.836211 131.366838 
L 213.294316 133.998638 
L 221.752421 136.436266 
L 230.210526 138.702411 
L 238.668632 140.817914 
L 247.126737 142.801551 
L 255.584842 144.66995 
L 264.042947 146.437646 
L 272.501053 148.117208 
L 280.959158 149.71942 
L 289.417263 151.253481 
L 297.875368 152.727211 
L 306.333474 154.14724 
L 314.791579 155.519191 
L 323.249684 156.847829 
L 331.707789 158.137206 
L 340.165895 159.390769 
L 348.624 160.611466 
L 357.082105 161.801827 
L 365.540211 162.96403 
L 373.998316 164.099963 
L 382.456421 165.211273 
" style="fill:none;stroke:#0000ff;stroke-dasharray:5.55,2.4;stroke-dashoffset:0;stroke-width:1.5;"/>
   </g>
   <g id="line2d_41">
    <path clip-path="url(#pfafc9576c1)" d="M 101.174974 289 
L 103.338947 273.400935 
L 111.797053 234.371687 
L 120.255158 208.208136 
L 128.713263 190.0735 
L 137.171368 177.196778 
L 145.629474 167.897708 
L 154.087579 161.109686 
L 162.545684 156.129599 
L 171.003789 152.478956 
L 179.461895 149.823035 
L 187.92 147.921884 
L 196.378105 146.599664 
L 204.836211 145.724951 
L 213.294316 145.197821 
L 221.752421 144.941227 
L 230.210526 144.895112 
L 238.668632 145.01232 
L 247.126737 145.255659 
L 255.584842 145.595756 
L 264.042947 146.009432 
L 272.501053 146.478444 
L 280.959158 146.988497 
L 289.417263 147.528454 
L 297.875368 148.089694 
L 306.333474 148.665595 
L 314.791579 149.251118 
L 323.249684 149.842462 
L 331.707789 150.436796 
L 340.165895 151.032034 
L 348.624 151.626669 
L 357.082105 152.219627 
L 365.540211 152.810163 
L 373.998316 153.397775 
L 382.456421 153.982143 
" style="fill:none;stroke:#ff0000;stroke-linecap:square;stroke-width:1.5;"/>
   </g>
   <g id="line2d_42">
    <path clip-path="url(#pfafc9576c1)" d="M 95.076384 289 
L 103.338947 242.773149 
L 111.797053 213.58835 
L 120.255158 194.829549 
L 128.713263 182.448575 
L 137.171368 174.159843 
L 145.629474 168.597301 
L 154.087579 164.906138 
L 162.545684 162.530733 
L 171.003789 161.097948 
L 179.461895 160.349787 
L 187.92 160.103041 
L 196.378105 160.224472 
L 204.836211 160.615229 
L 213.294316 161.200882 
L 221.752421 161.924899 
L 230.210526 162.744241 
L 238.668632 163.626253 
L 247.126737 164.546378 
L 255.584842 165.486411 
L 264.042947 166.43312 
L 272.501053 167.377134 
L 280.959158 168.312056 
L 289.417263 169.233734 
L 297.875368 170.139687 
L 306.333474 171.028651 
L 314.791579 171.900219 
L 323.249684 172.754574 
L 331.707789 173.592276 
L 340.165895 174.414121 
L 348.624 175.221021 
L 357.082105 176.013936 
L 365.540211 176.793817 
L 373.998316 177.561573 
L 382.456421 178.318052 
" style="fill:none;stroke:#0000ff;stroke-linecap:square;stroke-width:1.5;"/>
   </g>
   <g id="line2d_43">
    <path clip-path="url(#pfafc9576c1)" d="M 54 61.409063 
L 68.096842 61.409063 
L 82.193684 61.409063 
L 96.290526 61.409063 
L 110.387368 61.409063 
L 124.484211 61.409063 
L 138.581053 61.409063 
L 152.677895 61.409063 
L 166.774737 61.409063 
L 180.871579 61.409063 
L 194.968421 61.409063 
L 209.065263 61.409063 
L 223.162105 61.409063 
L 237.258947 61.409063 
L 251.355789 61.409063 
L 265.452632 61.409063 
L 279.549474 61.409063 
L 293.646316 61.409063 
L 307.743158 61.409063 
" style="fill:none;stroke:#1f77b4;stroke-linecap:square;stroke-opacity:0.7;stroke-width:1.5;"/>
   </g>
   <g id="line2d_44">
    <path clip-path="url(#pfafc9576c1)" d="M 54 89.510064 
L 68.096842 89.510064 
L 82.193684 89.510064 
L 96.290526 89.510064 
L 110.387368 89.510064 
L 124.484211 89.510064 
L 138.581053 89.510064 
L 152.677895 89.510064 
L 166.774737 89.510064 
L 180.871579 89.510064 
L 194.968421 89.510064 
L 209.065263 89.510064 
L 223.162105 89.510064 
L 237.258947 89.510064 
L 251.355789 89.510064 
L 265.452632 89.510064 
L 279.549474 89.510064 
L 293.646316 89.510064 
L 307.743158 89.510064 
" style="fill:none;stroke:#ff7f0e;stroke-linecap:square;stroke-opacity:0.7;stroke-width:1.5;"/>
   </g>
   <g id="line2d_45">
    <path clip-path="url(#pfafc9576c1)" d="M 54 181.383826 
L 68.096842 181.383826 
L 82.193684 181.383826 
L 96.290526 181.383826 
L 110.387368 181.383826 
L 124.484211 181.383826 
L 138.581053 181.383826 
L 152.677895 181.383826 
L 166.774737 181.383826 
L 180.871579 181.383826 
L 194.968421 181.383826 
L 209.065263 181.383826 
L 223.162105 181.383826 
L 237.258947 181.383826 
L 251.355789 181.383826 
L 265.452632 181.383826 
L 279.549474 181.383826 
L 293.646316 181.383826 
L 307.743158 181.383826 
" style="fill:none;stroke:#2ca02c;stroke-linecap:square;stroke-opacity:0.7;stroke-width:1.5;"/>
   </g>
   <g id="patch_3">
    <path d="M 54 252 
L 54 34.56 
" style="fill:none;stroke:#000000;stroke-linecap:square;stroke-linejoin:miter;stroke-width:0.8;"/>
   </g>
   <g id="patch_4">
    <path d="M 321.84 252 
L 321.84 34.56 
" style="fill:none;stroke:#000000;stroke-linecap:square;stroke-linejoin:miter;stroke-width:0.8;"/>
   </g>
   <g id="patch_5">
    <path d="M 54 252 
L 321.84 252 
" style="fill:none;stroke:#000000;stroke-linecap:square;stroke-linejoin:miter;stroke-width:0.8;"/>
   </g>
   <g id="patch_6">
    <path d="M 54 34.56 
L 321.84 34.56 
" style="fill:none;stroke:#000000;stroke-linecap:square;stroke-linejoin:miter;stroke-width:0.8;"/>
   </g>
   <g id="text_15">
    <!-- Sensor Height: 5 (m), S Class: D, Release rate: 25.0 (kg/hr) -->
    <g transform="translate(10.768125 28.56)scale(0.12 -0.12)">
     <defs>
      <path d="M 628 4666 
L 1259 4666 
L 1259 2753 
L 3553 2753 
L 3553 4666 
L 4184 4666 
L 4184 0 
L 3553 0 
L 3553 2222 
L 1259 2222 
L 1259 0 
L 628 0 
L 628 4666 
z
" id="DejaVuSans-48" transform="scale(0.015625)"/>
      <path d="M 2906 1791 
Q 2906 2416 2648 2759 
Q 2391 3103 1925 3103 
Q 1463 3103 1205 2759 
Q 947 2416 947 1791 
Q 947 1169 1205 825 
Q 1463 481 1925 481 
Q 2391 481 2648 825 
Q 2906 1169 2906 1791 
z
M 3481 434 
Q 3481 -459 3084 -895 
Q 2688 -1331 1869 -1331 
Q 1566 -1331 1297 -1286 
Q 1028 -1241 775 -1147 
L 775 -588 
Q 1028 -725 1275 -790 
Q 1522 -856 1778 -856 
Q 2344 -856 2625 -561 
Q 2906 -266 2906 331 
L 2906 616 
Q 2728 306 2450 153 
Q 2172 0 1784 0 
Q 1141 0 747 490 
Q 353 981 353 1791 
Q 353 2603 747 3093 
Q 1141 3584 1784 3584 
Q 2172 3584 2450 3431 
Q 2728 3278 2906 2969 
L 2906 3500 
L 3481 3500 
L 3481 434 
z
" id="DejaVuSans-67" transform="scale(0.015625)"/>
      <path d="M 3513 2113 
L 3513 0 
L 2938 0 
L 2938 2094 
Q 2938 2591 2744 2837 
Q 2550 3084 2163 3084 
Q 1697 3084 1428 2787 
Q 1159 2491 1159 1978 
L 1159 0 
L 581 0 
L 581 4863 
L 1159 4863 
L 1159 2956 
Q 1366 3272 1645 3428 
Q 1925 3584 2291 3584 
Q 2894 3584 3203 3211 
Q 3513 2838 3513 2113 
z
" id="DejaVuSans-68" transform="scale(0.015625)"/>
      <path d="M 750 794 
L 1409 794 
L 1409 0 
L 750 0 
L 750 794 
z
M 750 3309 
L 1409 3309 
L 1409 2516 
L 750 2516 
L 750 3309 
z
" id="DejaVuSans-3a" transform="scale(0.015625)"/>
      <path d="M 750 794 
L 1409 794 
L 1409 256 
L 897 -744 
L 494 -744 
L 750 256 
L 750 794 
z
" id="DejaVuSans-2c" transform="scale(0.015625)"/>
      <path d="M 603 4863 
L 1178 4863 
L 1178 0 
L 603 0 
L 603 4863 
z
" id="DejaVuSans-6c" transform="scale(0.015625)"/>
      <path d="M 2841 2188 
Q 3044 2119 3236 1894 
Q 3428 1669 3622 1275 
L 4263 0 
L 3584 0 
L 2988 1197 
Q 2756 1666 2539 1819 
Q 2322 1972 1947 1972 
L 1259 1972 
L 1259 0 
L 628 0 
L 628 4666 
L 2053 4666 
Q 2853 4666 3247 4331 
Q 3641 3997 3641 3322 
Q 3641 2881 3436 2590 
Q 3231 2300 2841 2188 
z
M 1259 4147 
L 1259 2491 
L 2053 2491 
Q 2509 2491 2742 2702 
Q 2975 2913 2975 3322 
Q 2975 3731 2742 3939 
Q 2509 4147 2053 4147 
L 1259 4147 
z
" id="DejaVuSans-52" transform="scale(0.015625)"/>
      <path d="M 684 794 
L 1344 794 
L 1344 0 
L 684 0 
L 684 794 
z
" id="DejaVuSans-2e" transform="scale(0.015625)"/>
      <path d="M 581 4863 
L 1159 4863 
L 1159 1991 
L 2875 3500 
L 3609 3500 
L 1753 1863 
L 3688 0 
L 2938 0 
L 1159 1709 
L 1159 0 
L 581 0 
L 581 4863 
z
" id="DejaVuSans-6b" transform="scale(0.015625)"/>
      <path d="M 1625 4666 
L 2156 4666 
L 531 -594 
L 0 -594 
L 1625 4666 
z
" id="DejaVuSans-2f" transform="scale(0.015625)"/>
     </defs>
     <use xlink:href="#DejaVuSans-53"/>
     <use x="63.476562" xlink:href="#DejaVuSans-65"/>
     <use x="125" xlink:href="#DejaVuSans-6e"/>
     <use x="188.378906" xlink:href="#DejaVuSans-73"/>
     <use x="240.478516" xlink:href="#DejaVuSans-6f"/>
     <use x="301.660156" xlink:href="#DejaVuSans-72"/>
     <use x="342.773438" xlink:href="#DejaVuSans-20"/>
     <use x="374.560547" xlink:href="#DejaVuSans-48"/>
     <use x="449.755859" xlink:href="#DejaVuSans-65"/>
     <use x="511.279297" xlink:href="#DejaVuSans-69"/>
     <use x="539.0625" xlink:href="#DejaVuSans-67"/>
     <use x="602.539062" xlink:href="#DejaVuSans-68"/>
     <use x="665.917969" xlink:href="#DejaVuSans-74"/>
     <use x="705.126953" xlink:href="#DejaVuSans-3a"/>
     <use x="738.818359" xlink:href="#DejaVuSans-20"/>
     <use x="770.605469" xlink:href="#DejaVuSans-35"/>
     <use x="834.228516" xlink:href="#DejaVuSans-20"/>
     <use x="866.015625" xlink:href="#DejaVuSans-28"/>
     <use x="905.029297" xlink:href="#DejaVuSans-6d"/>
     <use x="1002.441406" xlink:href="#DejaVuSans-29"/>
     <use x="1041.455078" xlink:href="#DejaVuSans-2c"/>
     <use x="1073.242188" xlink:href="#DejaVuSans-20"/>
     <use x="1105.029297" xlink:href="#DejaVuSans-53"/>
     <use x="1168.505859" xlink:href="#DejaVuSans-20"/>
     <use x="1200.292969" xlink:href="#DejaVuSans-43"/>
     <use x="1270.117188" xlink:href="#DejaVuSans-6c"/>
     <use x="1297.900391" xlink:href="#DejaVuSans-61"/>
     <use x="1359.179688" xlink:href="#DejaVuSans-73"/>
     <use x="1411.279297" xlink:href="#DejaVuSans-73"/>
     <use x="1463.378906" xlink:href="#DejaVuSans-3a"/>
     <use x="1497.070312" xlink:href="#DejaVuSans-20"/>
     <use x="1528.857422" xlink:href="#DejaVuSans-44"/>
     <use x="1605.859375" xlink:href="#DejaVuSans-2c"/>
     <use x="1637.646484" xlink:href="#DejaVuSans-20"/>
     <use x="1669.433594" xlink:href="#DejaVuSans-52"/>
     <use x="1734.416016" xlink:href="#DejaVuSans-65"/>
     <use x="1795.939453" xlink:href="#DejaVuSans-6c"/>
     <use x="1823.722656" xlink:href="#DejaVuSans-65"/>
     <use x="1885.246094" xlink:href="#DejaVuSans-61"/>
     <use x="1946.525391" xlink:href="#DejaVuSans-73"/>
     <use x="1998.625" xlink:href="#DejaVuSans-65"/>
     <use x="2060.148438" xlink:href="#DejaVuSans-20"/>
     <use x="2091.935547" xlink:href="#DejaVuSans-72"/>
     <use x="2133.048828" xlink:href="#DejaVuSans-61"/>
     <use x="2194.328125" xlink:href="#DejaVuSans-74"/>
     <use x="2233.537109" xlink:href="#DejaVuSans-65"/>
     <use x="2295.060547" xlink:href="#DejaVuSans-3a"/>
     <use x="2328.751953" xlink:href="#DejaVuSans-20"/>
     <use x="2360.539062" xlink:href="#DejaVuSans-32"/>
     <use x="2424.162109" xlink:href="#DejaVuSans-35"/>
     <use x="2487.785156" xlink:href="#DejaVuSans-2e"/>
     <use x="2519.572266" xlink:href="#DejaVuSans-30"/>
     <use x="2583.195312" xlink:href="#DejaVuSans-20"/>
     <use x="2614.982422" xlink:href="#DejaVuSans-28"/>
     <use x="2653.996094" xlink:href="#DejaVuSans-6b"/>
     <use x="2711.90625" xlink:href="#DejaVuSans-67"/>
     <use x="2775.382812" xlink:href="#DejaVuSans-2f"/>
     <use x="2809.074219" xlink:href="#DejaVuSans-68"/>
     <use x="2872.453125" xlink:href="#DejaVuSans-72"/>
     <use x="2913.566406" xlink:href="#DejaVuSans-29"/>
    </g>
   </g>
   <g id="legend_1">
    <g id="patch_7">
     <path d="M 328.84 210.831563 
L 431.968125 210.831563 
Q 433.968125 210.831563 433.968125 208.831563 
L 433.968125 77.728438 
Q 433.968125 75.728438 431.968125 75.728438 
L 328.84 75.728438 
Q 326.84 75.728438 326.84 77.728438 
L 326.84 208.831563 
Q 326.84 210.831563 328.84 210.831563 
z
" style="fill:#ffffff;opacity:0.8;stroke:#cccccc;stroke-linejoin:miter;"/>
    </g>
    <g id="line2d_46">
     <path d="M 330.84 83.826875 
L 350.84 83.826875 
" style="fill:none;stroke:#ff0000;stroke-dasharray:1.5,2.475;stroke-dashoffset:0;stroke-width:1.5;"/>
    </g>
    <g id="line2d_47"/>
    <g id="text_16">
     <!-- U 3 H 1 -->
     <g transform="translate(358.84 87.326875)scale(0.1 -0.1)">
      <defs>
       <path d="M 556 4666 
L 1191 4666 
L 1191 1831 
Q 1191 1081 1462 751 
Q 1734 422 2344 422 
Q 2950 422 3222 751 
Q 3494 1081 3494 1831 
L 3494 4666 
L 4128 4666 
L 4128 1753 
Q 4128 841 3676 375 
Q 3225 -91 2344 -91 
Q 1459 -91 1007 375 
Q 556 841 556 1753 
L 556 4666 
z
" id="DejaVuSans-55" transform="scale(0.015625)"/>
       <path d="M 2597 2516 
Q 3050 2419 3304 2112 
Q 3559 1806 3559 1356 
Q 3559 666 3084 287 
Q 2609 -91 1734 -91 
Q 1441 -91 1130 -33 
Q 819 25 488 141 
L 488 750 
Q 750 597 1062 519 
Q 1375 441 1716 441 
Q 2309 441 2620 675 
Q 2931 909 2931 1356 
Q 2931 1769 2642 2001 
Q 2353 2234 1838 2234 
L 1294 2234 
L 1294 2753 
L 1863 2753 
Q 2328 2753 2575 2939 
Q 2822 3125 2822 3475 
Q 2822 3834 2567 4026 
Q 2313 4219 1838 4219 
Q 1578 4219 1281 4162 
Q 984 4106 628 3988 
L 628 4550 
Q 988 4650 1302 4700 
Q 1616 4750 1894 4750 
Q 2613 4750 3031 4423 
Q 3450 4097 3450 3541 
Q 3450 3153 3228 2886 
Q 3006 2619 2597 2516 
z
" id="DejaVuSans-33" transform="scale(0.015625)"/>
      </defs>
      <use xlink:href="#DejaVuSans-55"/>
      <use x="73.193359" xlink:href="#DejaVuSans-20"/>
      <use x="104.980469" xlink:href="#DejaVuSans-33"/>
      <use x="168.603516" xlink:href="#DejaVuSans-20"/>
      <use x="200.390625" xlink:href="#DejaVuSans-48"/>
      <use x="275.585938" xlink:href="#DejaVuSans-20"/>
      <use x="307.373047" xlink:href="#DejaVuSans-31"/>
     </g>
    </g>
    <g id="line2d_48">
     <path d="M 330.84 98.505 
L 350.84 98.505 
" style="fill:none;stroke:#0000ff;stroke-dasharray:1.5,2.475;stroke-dashoffset:0;stroke-width:1.5;"/>
    </g>
    <g id="line2d_49"/>
    <g id="text_17">
     <!-- U 10 H 1 -->
     <g transform="translate(358.84 102.005)scale(0.1 -0.1)">
      <use xlink:href="#DejaVuSans-55"/>
      <use x="73.193359" xlink:href="#DejaVuSans-20"/>
      <use x="104.980469" xlink:href="#DejaVuSans-31"/>
      <use x="168.603516" xlink:href="#DejaVuSans-30"/>
      <use x="232.226562" xlink:href="#DejaVuSans-20"/>
      <use x="264.013672" xlink:href="#DejaVuSans-48"/>
      <use x="339.208984" xlink:href="#DejaVuSans-20"/>
      <use x="370.996094" xlink:href="#DejaVuSans-31"/>
     </g>
    </g>
    <g id="line2d_50">
     <path d="M 330.84 113.183125 
L 350.84 113.183125 
" style="fill:none;stroke:#ff0000;stroke-dasharray:5.55,2.4;stroke-dashoffset:0;stroke-width:1.5;"/>
    </g>
    <g id="line2d_51"/>
    <g id="text_18">
     <!-- U 3 H 5 -->
     <g transform="translate(358.84 116.683125)scale(0.1 -0.1)">
      <use xlink:href="#DejaVuSans-55"/>
      <use x="73.193359" xlink:href="#DejaVuSans-20"/>
      <use x="104.980469" xlink:href="#DejaVuSans-33"/>
      <use x="168.603516" xlink:href="#DejaVuSans-20"/>
      <use x="200.390625" xlink:href="#DejaVuSans-48"/>
      <use x="275.585938" xlink:href="#DejaVuSans-20"/>
      <use x="307.373047" xlink:href="#DejaVuSans-35"/>
     </g>
    </g>
    <g id="line2d_52">
     <path d="M 330.84 127.86125 
L 350.84 127.86125 
" style="fill:none;stroke:#0000ff;stroke-dasharray:5.55,2.4;stroke-dashoffset:0;stroke-width:1.5;"/>
    </g>
    <g id="line2d_53"/>
    <g id="text_19">
     <!-- U 10 H 5 -->
     <g transform="translate(358.84 131.36125)scale(0.1 -0.1)">
      <use xlink:href="#DejaVuSans-55"/>
      <use x="73.193359" xlink:href="#DejaVuSans-20"/>
      <use x="104.980469" xlink:href="#DejaVuSans-31"/>
      <use x="168.603516" xlink:href="#DejaVuSans-30"/>
      <use x="232.226562" xlink:href="#DejaVuSans-20"/>
      <use x="264.013672" xlink:href="#DejaVuSans-48"/>
      <use x="339.208984" xlink:href="#DejaVuSans-20"/>
      <use x="370.996094" xlink:href="#DejaVuSans-35"/>
     </g>
    </g>
    <g id="line2d_54">
     <path d="M 330.84 142.539375 
L 350.84 142.539375 
" style="fill:none;stroke:#ff0000;stroke-linecap:square;stroke-width:1.5;"/>
    </g>
    <g id="line2d_55"/>
    <g id="text_20">
     <!-- U 3 H 10 -->
     <g transform="translate(358.84 146.039375)scale(0.1 -0.1)">
      <use xlink:href="#DejaVuSans-55"/>
      <use x="73.193359" xlink:href="#DejaVuSans-20"/>
      <use x="104.980469" xlink:href="#DejaVuSans-33"/>
      <use x="168.603516" xlink:href="#DejaVuSans-20"/>
      <use x="200.390625" xlink:href="#DejaVuSans-48"/>
      <use x="275.585938" xlink:href="#DejaVuSans-20"/>
      <use x="307.373047" xlink:href="#DejaVuSans-31"/>
      <use x="370.996094" xlink:href="#DejaVuSans-30"/>
     </g>
    </g>
    <g id="line2d_56">
     <path d="M 330.84 157.2175 
L 350.84 157.2175 
" style="fill:none;stroke:#0000ff;stroke-linecap:square;stroke-width:1.5;"/>
    </g>
    <g id="line2d_57"/>
    <g id="text_21">
     <!-- U 10 H 10 -->
     <g transform="translate(358.84 160.7175)scale(0.1 -0.1)">
      <use xlink:href="#DejaVuSans-55"/>
      <use x="73.193359" xlink:href="#DejaVuSans-20"/>
      <use x="104.980469" xlink:href="#DejaVuSans-31"/>
      <use x="168.603516" xlink:href="#DejaVuSans-30"/>
      <use x="232.226562" xlink:href="#DejaVuSans-20"/>
      <use x="264.013672" xlink:href="#DejaVuSans-48"/>
      <use x="339.208984" xlink:href="#DejaVuSans-20"/>
      <use x="370.996094" xlink:href="#DejaVuSans-31"/>
      <use x="434.619141" xlink:href="#DejaVuSans-30"/>
     </g>
    </g>
    <g id="line2d_58">
     <path d="M 330.84 171.895625 
L 350.84 171.895625 
" style="fill:none;stroke:#1f77b4;stroke-linecap:square;stroke-opacity:0.7;stroke-width:1.5;"/>
    </g>
    <g id="line2d_59"/>
    <g id="text_22">
     <!-- NN 50 ppm -->
     <g transform="translate(358.84 175.395625)scale(0.1 -0.1)">
      <defs>
       <path d="M 628 4666 
L 1478 4666 
L 3547 763 
L 3547 4666 
L 4159 4666 
L 4159 0 
L 3309 0 
L 1241 3903 
L 1241 0 
L 628 0 
L 628 4666 
z
" id="DejaVuSans-4e" transform="scale(0.015625)"/>
      </defs>
      <use xlink:href="#DejaVuSans-4e"/>
      <use x="74.804688" xlink:href="#DejaVuSans-4e"/>
      <use x="149.609375" xlink:href="#DejaVuSans-20"/>
      <use x="181.396484" xlink:href="#DejaVuSans-35"/>
      <use x="245.019531" xlink:href="#DejaVuSans-30"/>
      <use x="308.642578" xlink:href="#DejaVuSans-20"/>
      <use x="340.429688" xlink:href="#DejaVuSans-70"/>
      <use x="403.90625" xlink:href="#DejaVuSans-70"/>
      <use x="467.382812" xlink:href="#DejaVuSans-6d"/>
     </g>
    </g>
    <g id="line2d_60">
     <path d="M 330.84 186.57375 
L 350.84 186.57375 
" style="fill:none;stroke:#ff7f0e;stroke-linecap:square;stroke-opacity:0.7;stroke-width:1.5;"/>
    </g>
    <g id="line2d_61"/>
    <g id="text_23">
     <!-- SGX 20 ppm -->
     <g transform="translate(358.84 190.07375)scale(0.1 -0.1)">
      <defs>
       <path d="M 3809 666 
L 3809 1919 
L 2778 1919 
L 2778 2438 
L 4434 2438 
L 4434 434 
Q 4069 175 3628 42 
Q 3188 -91 2688 -91 
Q 1594 -91 976 548 
Q 359 1188 359 2328 
Q 359 3472 976 4111 
Q 1594 4750 2688 4750 
Q 3144 4750 3555 4637 
Q 3966 4525 4313 4306 
L 4313 3634 
Q 3963 3931 3569 4081 
Q 3175 4231 2741 4231 
Q 1884 4231 1454 3753 
Q 1025 3275 1025 2328 
Q 1025 1384 1454 906 
Q 1884 428 2741 428 
Q 3075 428 3337 486 
Q 3600 544 3809 666 
z
" id="DejaVuSans-47" transform="scale(0.015625)"/>
       <path d="M 403 4666 
L 1081 4666 
L 2241 2931 
L 3406 4666 
L 4084 4666 
L 2584 2425 
L 4184 0 
L 3506 0 
L 2194 1984 
L 872 0 
L 191 0 
L 1856 2491 
L 403 4666 
z
" id="DejaVuSans-58" transform="scale(0.015625)"/>
      </defs>
      <use xlink:href="#DejaVuSans-53"/>
      <use x="63.476562" xlink:href="#DejaVuSans-47"/>
      <use x="140.966797" xlink:href="#DejaVuSans-58"/>
      <use x="209.472656" xlink:href="#DejaVuSans-20"/>
      <use x="241.259766" xlink:href="#DejaVuSans-32"/>
      <use x="304.882812" xlink:href="#DejaVuSans-30"/>
      <use x="368.505859" xlink:href="#DejaVuSans-20"/>
      <use x="400.292969" xlink:href="#DejaVuSans-70"/>
      <use x="463.769531" xlink:href="#DejaVuSans-70"/>
      <use x="527.246094" xlink:href="#DejaVuSans-6d"/>
     </g>
    </g>
    <g id="line2d_62">
     <path d="M 330.84 201.251875 
L 350.84 201.251875 
" style="fill:none;stroke:#2ca02c;stroke-linecap:square;stroke-opacity:0.7;stroke-width:1.5;"/>
    </g>
    <g id="line2d_63"/>
    <g id="text_24">
     <!-- TDLAS  1 ppm -->
     <g transform="translate(358.84 204.751875)scale(0.1 -0.1)">
      <defs>
       <path d="M -19 4666 
L 3928 4666 
L 3928 4134 
L 2272 4134 
L 2272 0 
L 1638 0 
L 1638 4134 
L -19 4134 
L -19 4666 
z
" id="DejaVuSans-54" transform="scale(0.015625)"/>
       <path d="M 628 4666 
L 1259 4666 
L 1259 531 
L 3531 531 
L 3531 0 
L 628 0 
L 628 4666 
z
" id="DejaVuSans-4c" transform="scale(0.015625)"/>
       <path d="M 2188 4044 
L 1331 1722 
L 3047 1722 
L 2188 4044 
z
M 1831 4666 
L 2547 4666 
L 4325 0 
L 3669 0 
L 3244 1197 
L 1141 1197 
L 716 0 
L 50 0 
L 1831 4666 
z
" id="DejaVuSans-41" transform="scale(0.015625)"/>
      </defs>
      <use xlink:href="#DejaVuSans-54"/>
      <use x="61.083984" xlink:href="#DejaVuSans-44"/>
      <use x="138.085938" xlink:href="#DejaVuSans-4c"/>
      <use x="196.048828" xlink:href="#DejaVuSans-41"/>
      <use x="264.457031" xlink:href="#DejaVuSans-53"/>
      <use x="327.933594" xlink:href="#DejaVuSans-20"/>
      <use x="359.720703" xlink:href="#DejaVuSans-20"/>
      <use x="391.507812" xlink:href="#DejaVuSans-31"/>
      <use x="455.130859" xlink:href="#DejaVuSans-20"/>
      <use x="486.917969" xlink:href="#DejaVuSans-70"/>
      <use x="550.394531" xlink:href="#DejaVuSans-70"/>
      <use x="613.871094" xlink:href="#DejaVuSans-6d"/>
     </g>
    </g>
   </g>
  </g>
 </g>
 <defs>
  <clipPath id="pfafc9576c1">
   <rect height="217.44" width="267.84" x="54" y="34.56"/>
  </clipPath>
 </defs>
</svg>
